General
Complete name                    : Transformers.Revenge.of.the.Fallen.2009.avi
Format                           : AVI
File size                        : 1.37 GiB
Duration                         : 2h 29mn
Overall bit rate                 : 1 312 Kbps

Video

Format                           : MPEG-4 Visual
Codec ID/Hint                    : XviD
Duration                         : 2h 29mn
Bit rate                         : 853 Kbps
Width                            : 720 pixels
Height                           : 428 pixels
Display aspect ratio             : 2.35:1
Stream size                      : 914 MiB (65%)
Writing library                  : XviD 1.1.2 (UTC 2006-11-01)

Audio

Format                           : AC-3
Duration                         : 2h 29mn
Bit rate                         : 448 Kbps
Channel(s)                       : 6 channels
Channel positions                : Front: L C R, Side: L R, LFE
Sampling rate                    : 48.0 KHz
Stream size                      : 480 MiB (34%)


